# xmcd
#
# Track frame offsets:
#	225
#	13770
#	27764
#	41690
#	56074
#	67048
#	82914
#	96652
#	108735
#	125529
#	139055
#	150984
#	163680
#	177222
#	188490
#	201154
#	216426
#	228289
#	241426
#	253482
#	265507
#	277970
#	291311
#	303140
#	316728
#
# Disc length: 4430 seconds
#
# Revision: 1
# Processed by: cddbd v1.4PL0 Copyright (c) Steve Scherf et al.
# Submitted via: audiograbber 1.81.03
#
DISCID=68114b19
DTITLE=Various Artist - The Best Of Sound Of Country
DYEAR=1996
DGENRE=Country
TTITLE0=Who's He To You
TTITLE1=Stupid Me
TTITLE2=The Seaboard Line
TTITLE3=Waitin' In The Wings 
TTITLE4=Feelin' More Haggard Than Merle
TTITLE5=Just Across The Line
TTITLE6=Pretty Words
TTITLE7=Born To Sing The Blues
TTITLE8=My Sin Is Loving You
TTITLE9=What Am I Doing In Your Arms Tonight
TTITLE10=Take The Chance
TTITLE11=Keep On Doing What You're Doing
TTITLE12=I'll Go Somewhere
TTITLE13=Can't Win For Losing
TTITLE14=She's Acting Like There's No Yesterday
TTITLE15=Say You Love Me Again
TTITLE16=I Don't Mind Keeping Up With The Jones
TTITLE17=Addicted To You
TTITLE18=I'll Die Trying
TTITLE19=Has Anybody Gotten Over You
TTITLE20=The Grass On The Other Side Died
TTITLE21=Sea Of Tears
TTITLE22=Who's Gonna Be The One
TTITLE23=She Was Thinking Of Me
TTITLE24=Kentucky Grass
EXTD=
EXTT0=Bubba Bartosh
EXTT1=Grant Tingey
EXTT2=Morgan Ruppe
EXTT3=Paul Proctor
EXTT4=Cody Austin
EXTT5=Pat Patterson
EXTT6=Lucky Lee
EXTT7=Jason Hawkins
EXTT8=Keith Harling
EXTT9=David Walsh
EXTT10=Kathy Edge
EXTT11=Terry Wooley
EXTT12=Melba Montgomery
EXTT13=Susan Rose Manning
EXTT14=Bubba Bartosh
EXTT15=Lisa Childress
EXTT16=Gary Lee Hale
EXTT17=Jeannie Marie
EXTT18=Larry James
EXTT19=Jim Purdy
EXTT20=Larry Beaird
EXTT21=Angie Welch
EXTT22=Jay Riley
EXTT23=Paul Proctor
EXTT24=Bobby McGee
PLAYORDER=
